<svg width="404" height="404" viewBox="0 0 404 404" fill="none" xmlns="http://www.w3.org/2000/svg">
<path d="M404 201.999C404 313.557 313.563 403.992 201.999 403.992C90.4368 403.992 0 313.557 0 201.999C0 90.4418 90.4368 0 201.999 0C313.563 0 404 90.4423 404 201.999Z" fill="#00AEEF"/>
<rect x="71" y="71" width="262" height="262" rx="50" fill="#1285C4"/>
<path d="M200.931 122.186C209.143 116.711 219.812 116.598 228.139 121.897L262.662 143.866H276.859C281.448 143.866 285.168 147.586 285.168 152.175V226.951C285.168 231.539 281.448 235.259 276.859 235.259H264.233C264.727 243.13 261.019 251.131 253.56 255.607L211.242 280.998C205.899 284.203 199.267 284.128 194.037 280.935C188.219 286.08 179.262 286.647 172.765 281.542L130.053 247.982C123.685 242.979 122.075 234.432 125.363 227.655C121.347 224.506 119 219.685 119 214.579V152.175C119 147.587 122.72 143.867 127.308 143.867H168.41L200.931 122.186ZM137.051 215.695L142.801 210.664C153.022 201.72 168.522 202.606 177.658 212.656L200.109 237.352C207.333 245.299 208.651 256.974 203.397 266.325L245.011 241.358C247.349 239.955 248.194 237.151 247.323 234.789L210.54 183.295C208.474 180.402 204.797 179.144 201.392 180.166L180.743 186.36C171.96 188.995 162.44 186.595 155.956 180.111L153.524 177.679C148.804 172.959 147.584 166.243 149.57 160.484H135.617V214.579L137.051 215.695ZM219.218 135.916C216.442 134.15 212.886 134.187 210.148 136.012L165.274 165.929L167.706 168.361C169.867 170.523 173.041 171.323 175.968 170.444L196.617 164.25C206.831 161.185 217.864 164.958 224.062 173.636L256.21 218.642H268.551V160.483H262.662C259.501 160.483 256.406 159.582 253.74 157.885L219.218 135.916ZM153.743 223.169L140.319 234.916L183.031 268.476L188.879 258.24C190.666 255.115 190.235 251.194 187.813 248.529L165.362 223.833C162.317 220.483 157.15 220.188 153.743 223.169Z" fill="#F9B84E"/>
</svg>
