<svg width="2550" height="532" viewBox="0 0 2550 532" fill="none" xmlns="http://www.w3.org/2000/svg">
<path d="M498.493 192.78C498.493 178.807 501.613 166.327 507.853 155.338C514.229 144.215 522.844 135.6 533.696 129.496C544.684 123.256 556.961 120.135 570.527 120.135C586.399 120.135 600.304 124.205 612.242 132.345C624.18 140.484 632.523 151.744 637.271 166.123H604.509C601.254 159.34 596.641 154.253 590.672 150.862C584.839 147.47 578.056 145.775 570.324 145.775C562.049 145.775 554.655 147.742 548.144 151.676C541.768 155.474 536.748 160.9 533.086 167.955C529.559 175.009 527.795 183.284 527.795 192.78C527.795 202.14 529.559 210.415 533.086 217.605C536.748 224.659 541.768 230.154 548.144 234.088C554.655 237.886 562.049 239.785 570.324 239.785C578.056 239.785 584.839 238.089 590.672 234.698C596.641 231.171 601.254 226.016 604.509 219.233H637.271C632.523 233.748 624.18 245.076 612.242 253.215C600.44 261.219 586.535 265.221 570.527 265.221C556.961 265.221 544.684 262.169 533.696 256.064C522.844 249.824 514.229 241.21 507.853 230.221C501.613 219.233 498.493 206.753 498.493 192.78ZM654.277 207.227C654.277 195.832 656.516 185.726 660.993 176.908C665.605 168.09 671.777 161.307 679.51 156.559C687.378 151.811 696.128 149.437 705.759 149.437C714.17 149.437 721.496 151.133 727.736 154.525C734.112 157.916 739.199 162.189 742.997 167.344V151.269H771.689V264H742.997V247.518C739.335 252.808 734.247 257.217 727.736 260.744C721.36 264.136 713.967 265.831 705.556 265.831C696.06 265.831 687.378 263.39 679.51 258.506C671.777 253.622 665.605 246.772 660.993 237.954C656.516 229 654.277 218.758 654.277 207.227ZM742.997 207.634C742.997 200.716 741.641 194.815 738.928 189.931C736.215 184.912 732.552 181.113 727.939 178.536C723.327 175.823 718.376 174.466 713.085 174.466C707.794 174.466 702.911 175.755 698.434 178.332C693.957 180.91 690.295 184.708 687.446 189.728C684.733 194.611 683.376 200.445 683.376 207.227C683.376 214.01 684.733 219.979 687.446 225.134C690.295 230.154 693.957 234.02 698.434 236.733C703.046 239.446 707.93 240.803 713.085 240.803C718.376 240.803 723.327 239.514 727.939 236.936C732.552 234.223 736.215 230.425 738.928 225.541C741.641 220.522 742.997 214.553 742.997 207.634ZM828 167.548C831.663 162.393 836.682 158.119 843.058 154.728C849.57 151.201 856.963 149.437 865.238 149.437C874.87 149.437 883.552 151.811 891.285 156.559C899.153 161.307 905.325 168.09 909.802 176.908C914.414 185.59 916.72 195.697 916.72 207.227C916.72 218.758 914.414 229 909.802 237.954C905.325 246.772 899.153 253.622 891.285 258.506C883.552 263.39 874.87 265.831 865.238 265.831C856.963 265.831 849.638 264.136 843.262 260.744C837.022 257.353 831.934 253.08 828 247.925V317.72H799.512V151.269H828V167.548ZM887.622 207.227C887.622 200.445 886.197 194.611 883.349 189.728C880.635 184.708 876.973 180.91 872.36 178.332C867.884 175.755 863 174.466 857.709 174.466C852.554 174.466 847.671 175.823 843.058 178.536C838.582 181.113 834.919 184.912 832.07 189.931C829.357 194.95 828 200.852 828 207.634C828 214.417 829.357 220.318 832.07 225.338C834.919 230.357 838.582 234.223 843.058 236.936C847.671 239.514 852.554 240.803 857.709 240.803C863 240.803 867.884 239.446 872.36 236.733C876.973 234.02 880.635 230.154 883.349 225.134C886.197 220.115 887.622 214.146 887.622 207.227ZM980.561 265.831C971.336 265.831 963.061 264.203 955.736 260.948C948.41 257.556 942.577 253.012 938.236 247.314C934.03 241.617 931.724 235.308 931.317 228.39H960.009C960.551 232.731 962.654 236.326 966.317 239.175C970.115 242.024 974.795 243.448 980.357 243.448C985.784 243.448 989.989 242.363 992.973 240.192C996.094 238.022 997.654 235.241 997.654 231.849C997.654 228.186 995.754 225.473 991.956 223.71C988.293 221.811 982.392 219.776 974.253 217.605C965.842 215.57 958.923 213.468 953.497 211.297C948.207 209.127 943.594 205.803 939.66 201.326C935.862 196.85 933.963 190.813 933.963 183.216C933.963 176.976 935.726 171.278 939.253 166.123C942.916 160.968 948.071 156.899 954.718 153.914C961.501 150.93 969.437 149.437 978.526 149.437C991.956 149.437 1002.67 152.829 1010.68 159.612C1018.68 166.259 1023.09 175.28 1023.9 186.675H996.636C996.229 182.199 994.33 178.672 990.939 176.094C987.683 173.381 983.274 172.024 977.712 172.024C972.557 172.024 968.555 172.974 965.706 174.873C962.993 176.772 961.637 179.418 961.637 182.809C961.637 186.608 963.536 189.524 967.334 191.559C971.133 193.458 977.034 195.425 985.038 197.46C993.177 199.495 999.892 201.598 1005.18 203.768C1010.47 205.939 1015.02 209.33 1018.82 213.942C1022.75 218.419 1024.79 224.388 1024.92 231.849C1024.92 238.361 1023.09 244.194 1019.43 249.349C1015.9 254.504 1010.74 258.574 1003.96 261.558C997.315 264.407 989.514 265.831 980.561 265.831ZM1081.47 174.67V229.204C1081.47 233.002 1082.36 235.783 1084.12 237.547C1086.02 239.175 1089.14 239.989 1093.48 239.989H1106.71V264H1088.8C1064.79 264 1052.78 252.333 1052.78 229V174.67H1039.35V151.269H1052.78V123.391H1081.47V151.269H1106.71V174.67H1081.47ZM1177.25 265.831C1166.4 265.831 1156.63 263.457 1147.95 258.709C1139.27 253.826 1132.42 246.975 1127.4 238.157C1122.52 229.34 1120.07 219.165 1120.07 207.634C1120.07 196.104 1122.58 185.929 1127.6 177.111C1132.76 168.294 1139.74 161.511 1148.56 156.763C1157.38 151.879 1167.22 149.437 1178.07 149.437C1188.92 149.437 1198.76 151.879 1207.57 156.763C1216.39 161.511 1223.31 168.294 1228.33 177.111C1233.48 185.929 1236.06 196.104 1236.06 207.634C1236.06 219.165 1233.42 229.34 1228.13 238.157C1222.97 246.975 1215.92 253.826 1206.96 258.709C1198.15 263.457 1188.24 265.831 1177.25 265.831ZM1177.25 241.006C1182.41 241.006 1187.22 239.785 1191.7 237.343C1196.31 234.766 1199.98 230.967 1202.69 225.948C1205.4 220.929 1206.76 214.824 1206.76 207.634C1206.76 196.917 1203.91 188.71 1198.21 183.013C1192.65 177.179 1185.8 174.263 1177.66 174.263C1169.52 174.263 1162.67 177.179 1157.11 183.013C1151.68 188.71 1148.97 196.917 1148.97 207.634C1148.97 218.351 1151.61 226.626 1156.91 232.46C1162.33 238.157 1169.11 241.006 1177.25 241.006ZM1319.43 149.641C1332.86 149.641 1343.71 153.914 1351.99 162.461C1360.26 170.871 1364.4 182.673 1364.4 197.867V264H1335.91V201.733C1335.91 192.78 1333.67 185.929 1329.2 181.181C1324.72 176.298 1318.61 173.856 1310.88 173.856C1303.01 173.856 1296.77 176.298 1292.16 181.181C1287.68 185.929 1285.45 192.78 1285.45 201.733V264H1256.96V151.269H1285.45V165.309C1289.24 160.426 1294.06 156.627 1299.89 153.914C1305.86 151.065 1312.37 149.641 1319.43 149.641ZM1496.28 205.193C1496.28 209.262 1496.01 212.925 1495.47 216.181H1413.06C1413.74 224.32 1416.59 230.696 1421.61 235.308C1426.62 239.921 1432.8 242.227 1440.12 242.227C1450.7 242.227 1458.23 237.682 1462.71 228.593H1493.44C1490.18 239.446 1483.94 248.399 1474.72 255.454C1465.49 262.372 1454.16 265.831 1440.73 265.831C1429.88 265.831 1420.11 263.457 1411.43 258.709C1402.88 253.826 1396.17 246.975 1391.29 238.157C1386.54 229.34 1384.16 219.165 1384.16 207.634C1384.16 195.968 1386.54 185.726 1391.29 176.908C1396.03 168.09 1402.68 161.307 1411.23 156.559C1419.77 151.811 1429.61 149.437 1440.73 149.437C1451.45 149.437 1461.01 151.744 1469.42 156.356C1477.97 160.968 1484.55 167.548 1489.16 176.094C1493.91 184.505 1496.28 194.204 1496.28 205.193ZM1466.78 197.053C1466.64 189.728 1464 183.894 1458.84 179.553C1453.69 175.077 1447.38 172.838 1439.92 172.838C1432.87 172.838 1426.9 175.009 1422.01 179.35C1417.26 183.555 1414.35 189.456 1413.26 197.053H1466.78ZM1634.9 121.967V264H1606.41V203.565H1545.57V264H1517.08V121.967H1545.57V180.367H1606.41V121.967H1634.9ZM1767.73 205.193C1767.73 209.262 1767.46 212.925 1766.92 216.181H1684.51C1685.18 224.32 1688.03 230.696 1693.05 235.308C1698.07 239.921 1704.24 242.227 1711.57 242.227C1722.15 242.227 1729.68 237.682 1734.16 228.593H1764.88C1761.63 239.446 1755.39 248.399 1746.16 255.454C1736.94 262.372 1725.61 265.831 1712.18 265.831C1701.33 265.831 1691.56 263.457 1682.88 258.709C1674.33 253.826 1667.62 246.975 1662.73 238.157C1657.99 229.34 1655.61 219.165 1655.61 207.634C1655.61 195.968 1657.99 185.726 1662.73 176.908C1667.48 168.09 1674.13 161.307 1682.67 156.559C1691.22 151.811 1701.06 149.437 1712.18 149.437C1722.9 149.437 1732.46 151.744 1740.87 156.356C1749.42 160.968 1756 167.548 1760.61 176.094C1765.36 184.505 1767.73 194.204 1767.73 205.193ZM1738.23 197.053C1738.09 189.728 1735.45 183.894 1730.29 179.553C1725.14 175.077 1718.83 172.838 1711.37 172.838C1704.31 172.838 1698.34 175.009 1693.46 179.35C1688.71 183.555 1685.79 189.456 1684.71 197.053H1738.23ZM1850.79 264L1827.59 229L1807.04 264H1776.52L1813.35 207.431L1776.11 151.269H1808.26L1831.26 186.065L1852.01 151.269H1882.54L1845.5 207.431L1882.94 264H1850.79Z" fill="#171717"/>
<path d="M558.688 384.088L533.44 451H523.36L498.112 384.088H507.424L528.448 441.784L549.472 384.088H558.688ZM623.947 422.68C623.947 424.344 623.851 426.104 623.659 427.96H581.611C581.931 433.144 583.691 437.208 586.891 440.152C590.155 443.032 594.091 444.472 598.699 444.472C602.475 444.472 605.611 443.608 608.107 441.88C610.667 440.088 612.459 437.72 613.483 434.776H622.891C621.483 439.832 618.667 443.96 614.443 447.16C610.219 450.296 604.971 451.864 598.699 451.864C593.707 451.864 589.227 450.744 585.259 448.504C581.355 446.264 578.283 443.096 576.043 439C573.803 434.84 572.683 430.04 572.683 424.6C572.683 419.16 573.771 414.392 575.947 410.296C578.123 406.2 581.163 403.064 585.067 400.888C589.035 398.648 593.579 397.528 598.699 397.528C603.691 397.528 608.107 398.616 611.947 400.792C615.787 402.968 618.731 405.976 620.779 409.816C622.891 413.592 623.947 417.88 623.947 422.68ZM614.923 420.856C614.923 417.528 614.187 414.68 612.715 412.312C611.243 409.88 609.227 408.056 606.667 406.84C604.171 405.56 601.387 404.92 598.315 404.92C593.899 404.92 590.123 406.328 586.987 409.144C583.915 411.96 582.155 415.864 581.707 420.856H614.923ZM668.79 397.432C675.19 397.432 680.374 399.384 684.342 403.288C688.31 407.128 690.294 412.696 690.294 419.992V451H681.654V421.24C681.654 415.992 680.342 411.992 677.718 409.24C675.094 406.424 671.51 405.016 666.966 405.016C662.358 405.016 658.678 406.456 655.926 409.336C653.238 412.216 651.894 416.408 651.894 421.912V451H643.158V398.392H651.894V405.88C653.622 403.192 655.958 401.112 658.902 399.64C661.91 398.168 665.206 397.432 668.79 397.432ZM708.98 424.504C708.98 419.128 710.068 414.424 712.244 410.392C714.42 406.296 717.396 403.128 721.172 400.888C725.012 398.648 729.3 397.528 734.036 397.528C738.132 397.528 741.94 398.488 745.46 400.408C748.98 402.264 751.668 404.728 753.524 407.8V379.96H762.356V451H753.524V441.112C751.796 444.248 749.236 446.84 745.844 448.888C742.452 450.872 738.484 451.864 733.94 451.864C729.268 451.864 725.012 450.712 721.172 448.408C717.396 446.104 714.42 442.872 712.244 438.712C710.068 434.552 708.98 429.816 708.98 424.504ZM753.524 424.6C753.524 420.632 752.724 417.176 751.124 414.232C749.524 411.288 747.348 409.048 744.596 407.512C741.908 405.912 738.932 405.112 735.668 405.112C732.404 405.112 729.428 405.88 726.74 407.416C724.052 408.952 721.908 411.192 720.308 414.136C718.708 417.08 717.908 420.536 717.908 424.504C717.908 428.536 718.708 432.056 720.308 435.064C721.908 438.008 724.052 440.28 726.74 441.88C729.428 443.416 732.404 444.184 735.668 444.184C738.932 444.184 741.908 443.416 744.596 441.88C747.348 440.28 749.524 438.008 751.124 435.064C752.724 432.056 753.524 428.568 753.524 424.6ZM807.744 451.864C802.816 451.864 798.336 450.744 794.304 448.504C790.336 446.264 787.2 443.096 784.896 439C782.656 434.84 781.536 430.04 781.536 424.6C781.536 419.224 782.688 414.488 784.992 410.392C787.36 406.232 790.56 403.064 794.592 400.888C798.624 398.648 803.136 397.528 808.128 397.528C813.12 397.528 817.632 398.648 821.664 400.888C825.696 403.064 828.864 406.2 831.168 410.296C833.536 414.392 834.72 419.16 834.72 424.6C834.72 430.04 833.504 434.84 831.072 439C828.704 443.096 825.472 446.264 821.376 448.504C817.28 450.744 812.736 451.864 807.744 451.864ZM807.744 444.184C810.88 444.184 813.824 443.448 816.576 441.976C819.328 440.504 821.536 438.296 823.2 435.352C824.928 432.408 825.792 428.824 825.792 424.6C825.792 420.376 824.96 416.792 823.296 413.848C821.632 410.904 819.456 408.728 816.768 407.32C814.08 405.848 811.168 405.112 808.032 405.112C804.832 405.112 801.888 405.848 799.2 407.32C796.576 408.728 794.464 410.904 792.864 413.848C791.264 416.792 790.464 420.376 790.464 424.6C790.464 428.888 791.232 432.504 792.768 435.448C794.368 438.392 796.48 440.6 799.104 442.072C801.728 443.48 804.608 444.184 807.744 444.184ZM862.622 406.936C864.158 403.928 866.334 401.592 869.15 399.928C872.03 398.264 875.518 397.432 879.614 397.432V406.456H877.31C867.518 406.456 862.622 411.768 862.622 422.392V451H853.886V398.392H862.622V406.936ZM998.524 384.568V451H989.788V401.464L967.708 451H961.564L939.388 401.368V451H930.652V384.568H940.06L964.636 439.48L989.212 384.568H998.524ZM1017.76 424.504C1017.76 419.128 1018.84 414.424 1021.02 410.392C1023.2 406.296 1026.17 403.128 1029.95 400.888C1033.79 398.648 1038.04 397.528 1042.72 397.528C1047.32 397.528 1051.32 398.52 1054.72 400.504C1058.11 402.488 1060.64 404.984 1062.3 407.992V398.392H1071.13V451H1062.3V441.208C1060.57 444.28 1057.98 446.84 1054.52 448.888C1051.13 450.872 1047.16 451.864 1042.62 451.864C1037.95 451.864 1033.72 450.712 1029.95 448.408C1026.17 446.104 1023.2 442.872 1021.02 438.712C1018.84 434.552 1017.76 429.816 1017.76 424.504ZM1062.3 424.6C1062.3 420.632 1061.5 417.176 1059.9 414.232C1058.3 411.288 1056.12 409.048 1053.37 407.512C1050.68 405.912 1047.71 405.112 1044.44 405.112C1041.18 405.112 1038.2 405.88 1035.52 407.416C1032.83 408.952 1030.68 411.192 1029.08 414.136C1027.48 417.08 1026.68 420.536 1026.68 424.504C1026.68 428.536 1027.48 432.056 1029.08 435.064C1030.68 438.008 1032.83 440.28 1035.52 441.88C1038.2 443.416 1041.18 444.184 1044.44 444.184C1047.71 444.184 1050.68 443.416 1053.37 441.88C1056.12 440.28 1058.3 438.008 1059.9 435.064C1061.5 432.056 1062.3 428.568 1062.3 424.6ZM1119.21 397.432C1125.61 397.432 1130.79 399.384 1134.76 403.288C1138.73 407.128 1140.71 412.696 1140.71 419.992V451H1132.07V421.24C1132.07 415.992 1130.76 411.992 1128.13 409.24C1125.51 406.424 1121.93 405.016 1117.38 405.016C1112.77 405.016 1109.09 406.456 1106.34 409.336C1103.65 412.216 1102.31 416.408 1102.31 421.912V451H1093.57V398.392H1102.31V405.88C1104.04 403.192 1106.37 401.112 1109.32 399.64C1112.33 398.168 1115.62 397.432 1119.21 397.432ZM1159.4 424.504C1159.4 419.128 1160.48 414.424 1162.66 410.392C1164.84 406.296 1167.81 403.128 1171.59 400.888C1175.43 398.648 1179.68 397.528 1184.36 397.528C1188.96 397.528 1192.96 398.52 1196.36 400.504C1199.75 402.488 1202.28 404.984 1203.94 407.992V398.392H1212.77V451H1203.94V441.208C1202.21 444.28 1199.62 446.84 1196.16 448.888C1192.77 450.872 1188.8 451.864 1184.26 451.864C1179.59 451.864 1175.36 450.712 1171.59 448.408C1167.81 446.104 1164.84 442.872 1162.66 438.712C1160.48 434.552 1159.4 429.816 1159.4 424.504ZM1203.94 424.6C1203.94 420.632 1203.14 417.176 1201.54 414.232C1199.94 411.288 1197.76 409.048 1195.01 407.512C1192.32 405.912 1189.35 405.112 1186.08 405.112C1182.82 405.112 1179.84 405.88 1177.16 407.416C1174.47 408.952 1172.32 411.192 1170.72 414.136C1169.12 417.08 1168.32 420.536 1168.32 424.504C1168.32 428.536 1169.12 432.056 1170.72 435.064C1172.32 438.008 1174.47 440.28 1177.16 441.88C1179.84 443.416 1182.82 444.184 1186.08 444.184C1189.35 444.184 1192.32 443.416 1195.01 441.88C1197.76 440.28 1199.94 438.008 1201.54 435.064C1203.14 432.056 1203.94 428.568 1203.94 424.6ZM1256.91 397.528C1261.46 397.528 1265.42 398.52 1268.82 400.504C1272.27 402.488 1274.83 404.984 1276.5 407.992V398.392H1285.33V452.152C1285.33 456.952 1284.3 461.208 1282.26 464.92C1280.21 468.696 1277.26 471.64 1273.42 473.752C1269.65 475.864 1265.23 476.92 1260.18 476.92C1253.26 476.92 1247.5 475.288 1242.9 472.024C1238.29 468.76 1235.57 464.312 1234.74 458.68H1243.38C1244.34 461.88 1246.32 464.44 1249.33 466.36C1252.34 468.344 1255.95 469.336 1260.18 469.336C1264.98 469.336 1268.88 467.832 1271.89 464.824C1274.96 461.816 1276.5 457.592 1276.5 452.152V441.112C1274.77 444.184 1272.21 446.744 1268.82 448.792C1265.42 450.84 1261.46 451.864 1256.91 451.864C1252.24 451.864 1247.98 450.712 1244.14 448.408C1240.37 446.104 1237.39 442.872 1235.22 438.712C1233.04 434.552 1231.95 429.816 1231.95 424.504C1231.95 419.128 1233.04 414.424 1235.22 410.392C1237.39 406.296 1240.37 403.128 1244.14 400.888C1247.98 398.648 1252.24 397.528 1256.91 397.528ZM1276.5 424.6C1276.5 420.632 1275.7 417.176 1274.1 414.232C1272.5 411.288 1270.32 409.048 1267.57 407.512C1264.88 405.912 1261.9 405.112 1258.64 405.112C1255.38 405.112 1252.4 405.88 1249.71 407.416C1247.02 408.952 1244.88 411.192 1243.28 414.136C1241.68 417.08 1240.88 420.536 1240.88 424.504C1240.88 428.536 1241.68 432.056 1243.28 435.064C1244.88 438.008 1247.02 440.28 1249.71 441.88C1252.4 443.416 1255.38 444.184 1258.64 444.184C1261.9 444.184 1264.88 443.416 1267.57 441.88C1270.32 440.28 1272.5 438.008 1274.1 435.064C1275.7 432.056 1276.5 428.568 1276.5 424.6ZM1355.77 422.68C1355.77 424.344 1355.67 426.104 1355.48 427.96H1313.43C1313.75 433.144 1315.51 437.208 1318.71 440.152C1321.98 443.032 1325.91 444.472 1330.52 444.472C1334.3 444.472 1337.43 443.608 1339.93 441.88C1342.49 440.088 1344.28 437.72 1345.31 434.776H1354.71C1353.31 439.832 1350.49 443.96 1346.27 447.16C1342.04 450.296 1336.79 451.864 1330.52 451.864C1325.53 451.864 1321.05 450.744 1317.08 448.504C1313.18 446.264 1310.11 443.096 1307.87 439C1305.63 434.84 1304.51 430.04 1304.51 424.6C1304.51 419.16 1305.59 414.392 1307.77 410.296C1309.95 406.2 1312.99 403.064 1316.89 400.888C1320.86 398.648 1325.4 397.528 1330.52 397.528C1335.51 397.528 1339.93 398.616 1343.77 400.792C1347.61 402.968 1350.55 405.976 1352.6 409.816C1354.71 413.592 1355.77 417.88 1355.77 422.68ZM1346.75 420.856C1346.75 417.528 1346.01 414.68 1344.54 412.312C1343.07 409.88 1341.05 408.056 1338.49 406.84C1335.99 405.56 1333.21 404.92 1330.14 404.92C1325.72 404.92 1321.95 406.328 1318.81 409.144C1315.74 411.96 1313.98 415.864 1313.53 420.856H1346.75ZM1438.25 397.432C1442.34 397.432 1445.99 398.296 1449.19 400.024C1452.39 401.688 1454.92 404.216 1456.77 407.608C1458.63 411 1459.56 415.128 1459.56 419.992V451H1450.92V421.24C1450.92 415.992 1449.61 411.992 1446.98 409.24C1444.42 406.424 1440.93 405.016 1436.52 405.016C1431.97 405.016 1428.36 406.488 1425.67 409.432C1422.98 412.312 1421.64 416.504 1421.64 422.008V451H1413V421.24C1413 415.992 1411.69 411.992 1409.06 409.24C1406.5 406.424 1403.01 405.016 1398.6 405.016C1394.05 405.016 1390.44 406.488 1387.75 409.432C1385.06 412.312 1383.72 416.504 1383.72 422.008V451H1374.98V398.392H1383.72V405.976C1385.45 403.224 1387.75 401.112 1390.63 399.64C1393.57 398.168 1396.81 397.432 1400.33 397.432C1404.74 397.432 1408.65 398.424 1412.04 400.408C1415.43 402.392 1417.96 405.304 1419.62 409.144C1421.09 405.432 1423.53 402.552 1426.92 400.504C1430.31 398.456 1434.09 397.432 1438.25 397.432ZM1529.57 422.68C1529.57 424.344 1529.47 426.104 1529.28 427.96H1487.23C1487.55 433.144 1489.31 437.208 1492.51 440.152C1495.78 443.032 1499.71 444.472 1504.32 444.472C1508.1 444.472 1511.23 443.608 1513.73 441.88C1516.29 440.088 1518.08 437.72 1519.1 434.776H1528.51C1527.1 439.832 1524.29 443.96 1520.06 447.16C1515.84 450.296 1510.59 451.864 1504.32 451.864C1499.33 451.864 1494.85 450.744 1490.88 448.504C1486.98 446.264 1483.9 443.096 1481.66 439C1479.42 434.84 1478.3 430.04 1478.3 424.6C1478.3 419.16 1479.39 414.392 1481.57 410.296C1483.74 406.2 1486.78 403.064 1490.69 400.888C1494.66 398.648 1499.2 397.528 1504.32 397.528C1509.31 397.528 1513.73 398.616 1517.57 400.792C1521.41 402.968 1524.35 405.976 1526.4 409.816C1528.51 413.592 1529.57 417.88 1529.57 422.68ZM1520.54 420.856C1520.54 417.528 1519.81 414.68 1518.34 412.312C1516.86 409.88 1514.85 408.056 1512.29 406.84C1509.79 405.56 1507.01 404.92 1503.94 404.92C1499.52 404.92 1495.74 406.328 1492.61 409.144C1489.54 411.96 1487.78 415.864 1487.33 420.856H1520.54ZM1574.41 397.432C1580.81 397.432 1586 399.384 1589.96 403.288C1593.93 407.128 1595.92 412.696 1595.92 419.992V451H1587.28V421.24C1587.28 415.992 1585.96 411.992 1583.34 409.24C1580.72 406.424 1577.13 405.016 1572.59 405.016C1567.98 405.016 1564.3 406.456 1561.55 409.336C1558.86 412.216 1557.52 416.408 1557.52 421.912V451H1548.78V398.392H1557.52V405.88C1559.24 403.192 1561.58 401.112 1564.52 399.64C1567.53 398.168 1570.83 397.432 1574.41 397.432ZM1628.52 405.592V436.6C1628.52 439.16 1629.07 440.984 1630.15 442.072C1631.24 443.096 1633.13 443.608 1635.82 443.608H1642.25V451H1634.38C1629.51 451 1625.87 449.88 1623.43 447.64C1621 445.4 1619.79 441.72 1619.79 436.6V405.592H1612.97V398.392H1619.79V385.144H1628.52V398.392H1642.25V405.592H1628.52Z" fill="#171717"/>
<path d="M439 265.999C439 377.557 348.563 467.992 236.999 467.992C125.437 467.992 35 377.557 35 265.999C35 154.442 125.437 64 236.999 64C348.563 64 439 154.442 439 265.999Z" fill="#00AEEF"/>
<rect x="106" y="135" width="262" height="262" rx="50" fill="#1285C4"/>
<path d="M235.931 186.186C244.143 180.711 254.812 180.598 263.139 185.897L297.662 207.866H311.859C316.448 207.866 320.168 211.586 320.168 216.175V290.951C320.168 295.539 316.448 299.259 311.859 299.259H299.233C299.727 307.13 296.019 315.131 288.56 319.607L246.242 344.998C240.899 348.203 234.267 348.128 229.037 344.935C223.219 350.08 214.262 350.647 207.765 345.542L165.053 311.982C158.685 306.979 157.075 298.432 160.363 291.655C156.347 288.506 154 283.685 154 278.579V216.175C154 211.587 157.72 207.867 162.308 207.867H203.41L235.931 186.186ZM172.051 279.695L177.801 274.664C188.022 265.72 203.522 266.606 212.658 276.656L235.109 301.352C242.333 309.299 243.651 320.974 238.397 330.325L280.011 305.358C282.349 303.955 283.194 301.151 282.323 298.789L245.54 247.295C243.474 244.402 239.797 243.144 236.392 244.166L215.743 250.36C206.96 252.995 197.44 250.595 190.956 244.111L188.524 241.679C183.804 236.959 182.584 230.243 184.57 224.484H170.617V278.579L172.051 279.695ZM254.218 199.916C251.442 198.15 247.886 198.187 245.148 200.012L200.274 229.929L202.706 232.361C204.867 234.523 208.041 235.323 210.968 234.444L231.617 228.25C241.831 225.185 252.864 228.958 259.062 237.636L291.21 282.642H303.551V224.483H297.662C294.501 224.483 291.406 223.582 288.74 221.885L254.218 199.916ZM188.743 287.169L175.319 298.916L218.031 332.476L223.879 322.24C225.666 319.115 225.235 315.194 222.813 312.529L200.362 287.833C197.317 284.483 192.15 284.188 188.743 287.169Z" fill="#F9B84E"/>
</svg>
